<svg width="16" height="14" viewBox="0 0 16 14" fill="none" xmlns="http://www.w3.org/2000/svg">
<path d="M0.516053 3.09412V1.51501C0.513559 1.40662 0.532836 1.29884 0.572743 1.19803C0.612649 1.09722 0.672373 1.00545 0.748382 0.928137C0.824391 0.850826 0.915138 0.789549 1.01525 0.747935C1.11536 0.706321 1.22281 0.685215 1.33123 0.685867H4.86674C5.03876 0.685602 5.20641 0.740073 5.34542 0.8414C5.48443 0.942727 5.5876 1.08565 5.63999 1.2495L5.92414 2.13454C5.97636 2.29887 6.07934 2.44241 6.21828 2.54453C6.35722 2.64664 6.52496 2.70207 6.69739 2.70284H14.5184C14.6252 2.70222 14.7311 2.72273 14.83 2.76319C14.9289 2.80365 15.0188 2.86325 15.0945 2.93858C15.1703 3.0139 15.2304 3.10346 15.2714 3.2021C15.3124 3.30074 15.3336 3.40652 15.3336 3.51335V11.7163C15.3336 11.9325 15.2477 12.1399 15.0948 12.2927C14.9419 12.4456 14.7346 12.5315 14.5184 12.5315H1.33123C1.11503 12.5315 0.907685 12.4456 0.754811 12.2927C0.601937 12.1399 0.516053 11.9325 0.516053 11.7163V10.9058" stroke="#01A49E" stroke-linecap="round" stroke-linejoin="round"/>
</svg>
